Coordinates
version=1
nRows=9
nColumns=36
inDegrees=yes

Units are S.I. units (second, meters, Newtons, ...)
If the header above contains a line with 'inDegrees', this indicates whether rotational values are in degrees (yes) or radians (no).

endheader
time	pelvis_tilt	pelvis_list	pelvis_rotation	pelvis_tx	pelvis_ty	pelvis_tz	hip_flexion_r	hip_adduction_r	hip_rotation_r	knee_angle_r	knee_angle_r_beta	ankle_angle_r	subtalar_angle_r	mtp_angle_r	hip_flexion_l	hip_adduction_l	hip_rotation_l	knee_angle_l	knee_angle_l_beta	ankle_angle_l	subtalar_angle_l	mtp_angle_l	lumbar_extension	lumbar_bending	lumbar_rotation	arm_flex_r	arm_add_r	arm_rot_r	elbow_flex_r	pro_sup_r	arm_flex_l	arm_add_l	arm_rot_l	elbow_flex_l	pro_sup_l
      0.00000000	     -4.91230815	     -0.37149847	     -2.12285778	     -0.12079814	      1.04251535	     -0.61614225	      0.35963899	     -1.87618891	    -12.49907894	      0.97205744	      0.01696560	      4.19168575	      4.81309769	     -5.30900953	     -0.45220329	     -5.41721379	    -15.34303102	      1.11932545	      0.01953591	      4.37822618	      5.62782134	     -5.30900953	     -1.81290682	      1.63560330	     -2.22109637	     -6.22307567	     -4.44239653	     -8.45714485	     39.65314220	    106.70703046	     -9.95507345	     -0.71045045	    -19.48456793	     42.94626249	     98.79433611
      0.01000000	     -4.95204535	     -0.38226083	     -2.12931927	     -0.12085624	      1.04247288	     -0.61620202	      0.41170075	     -1.86689143	    -12.42265301	      0.97010949	      0.01693160	      4.12014203	      4.66724622	     -6.06378978	     -0.42056150	     -5.41776715	    -15.22143093	      1.09440206	      0.01910092	      4.24951668	      5.36524596	     -6.06378978	     -1.80406734	      1.65902653	     -2.01805166	     -6.39935314	     -4.34003042	     -9.14810452	     39.87683898	    107.66913708	     -9.82502649	     -0.71039383	    -19.45265115	     42.77919656	     99.90602567
      0.02000000	     -4.97676580	     -0.38385252	     -2.14483208	     -0.12090293	      1.04245722	     -0.61623331	      0.44545563	     -1.86832028	    -12.36896850	      0.97442481	      0.01700692	      4.07562490	      4.62341088	     -6.76365152	     -0.39230686	     -5.41242947	    -15.21772360	      1.09475621	      0.01910710	      4.21488029	      5.29866237	     -6.76365152	     -1.79725877	      1.65983153	     -1.97133358	     -6.42012438	     -4.35124769	     -9.21861191	     39.91226480	    107.72372239	     -9.79898826	     -0.71207339	    -19.42467943	     42.77153335	     99.78622783
      0.03000000	     -4.98540320	     -0.38650241	     -2.12230534	     -0.12092711	      1.04246716	     -0.61629093	      0.45100986	     -1.86770563	    -12.41078804	      0.96187101	      0.01678782	      4.08803170	      4.64400099	     -7.04598193	     -0.37432574	     -5.41634309	    -15.17495306	      1.10529986	      0.01929112	      4.24392759	      5.30154963	     -7.04598193	     -1.81047413	      1.65961990	     -2.02940748	     -6.38405105	     -4.38185376	     -9.11417977	     39.88539222	    107.60305295	     -9.83717970	     -0.68699437	    -19.50830697	     42.88222680	     99.61434634
      0.04000000	     -4.96741626	     -0.39512866	     -2.11505598	     -0.12085595	      1.04250159	     -0.61634042	      0.43220430	     -1.86284350	    -12.43704793	      0.97632828	      0.01704014	      4.09359205	      4.66852899	     -7.21130720	     -0.40257845	     -5.41914643	    -15.12814966	      1.09310135	      0.01907822	      4.23490482	      5.23412480	     -7.21130720	     -1.84756777	      1.67420916	     -1.97242326	     -6.45753306	     -4.38218611	     -9.25836657	     40.01283823	    107.59094436	     -9.81435848	     -0.71672221	    -19.41216553	     42.79320567	    100.09635228
      0.05000000	     -4.97393036	     -0.40459835	     -2.12329982	     -0.12081435	      1.04250317	     -0.61634198	      0.43175292	     -1.84591396	    -12.39633003	      0.96732065	      0.01688293	      4.04631314	      4.58264915	     -7.39514084	     -0.39716816	     -5.43287718	    -15.14115485	      1.10155983	      0.01922585	      4.23350798	      5.24401248	     -7.39514084	     -1.85759724	      1.69096347	     -1.89162317	     -6.53679762	     -4.39169566	     -9.37663466	     40.09852290	    107.64745028	     -9.77799727	     -0.76751640	    -19.18795352	     42.76288532	     99.74475976
      0.06000000	     -4.97198119	     -0.39894616	     -2.11626107	     -0.12078871	      1.04250561	     -0.61637133	      0.43154876	     -1.85472974	    -12.44705262	      0.97499546	      0.01701688	      4.07847137	      4.63731488	     -7.45235026	     -0.39889236	     -5.42456875	    -15.13657293	      1.09839697	      0.01917064	      4.21259316	      5.22541408	     -7.45235026	     -1.88057470	      1.67927799	     -1.92965920	     -6.53534256	     -4.41848201	     -9.38253400	     40.12675020	    107.72371445	     -9.83099275	     -0.69729441	    -19.52246595	     42.86886507	    100.14558554
      0.07000000	     -4.97736773	     -0.39530782	     -2.12691178	     -0.12077199	      1.04250451	     -0.61637888	      0.44010238	     -1.86173227	    -12.41977797	      0.98220710	      0.01714275	      4.09711386	      4.63872787	     -7.47591064	     -0.39626616	     -5.41874707	    -15.14854531	      1.09465763	      0.01910538	      4.21399104	      5.23670980	     -7.47591064	     -1.89589133	      1.68086679	     -1.92817324	     -6.55962075	     -4.43637826	     -9.47682387	     40.19669883	    107.74446090	     -9.84922296	     -0.68311740	    -19.61516927	     42.86391542	    100.36453210
      0.08000000	     -4.97467978	     -0.39608122	     -2.10267336	     -0.12074333	      1.04250831	     -0.61640961	      0.43786326	     -1.86310172	    -12.48722329	      0.98707844	      0.01722777	      4.10133233	      4.70732825	     -7.48965135	     -0.39501185	     -5.41940939	    -15.10957861	      1.09946579	      0.01918930	      4.21383561	      5.23668786	     -7.48965135	     -1.92057819	      1.68716800	     -1.91419517	     -6.59946890	     -4.44784406	     -9.60167926	     40.23678805	    107.87860286	     -9.86131128	     -0.66593367	    -19.65164079	     42.94547837	    100.29400049
